<svg width="15" height="15" viewBox="0 0 25 25" fill="none" xmlns="http://www.w3.org/2000/svg">
<g clip-path="url(#clip0_2_26)">
<path d="M24.2156 12.5711C24.2148 6.10156 18.9703 0.857025 12.5 0.857025C6.02968 0.857025 0.784363 6.10234 0.784363 12.5726C0.784363 18.3969 5.03436 23.2281 10.6016 24.1351L10.6687 24.1445V15.9586H7.69374V12.5711H10.6687V9.9914C10.6539 9.86093 10.6461 9.70937 10.6461 9.55624C10.6461 7.27265 12.4976 5.42109 14.7812 5.42109C14.8914 5.42109 15.0008 5.42578 15.1094 5.43359L15.0953 5.43281C16.032 5.44609 16.9383 5.5289 17.8226 5.67656L17.718 5.66171V8.54453H16.2398C16.1726 8.53515 16.0953 8.52968 16.0172 8.52968C15.082 8.52968 14.3234 9.28749 14.3234 10.2234C14.3234 10.2766 14.3258 10.3289 14.3305 10.3812L14.3297 10.3742V12.5711H17.5789L17.0594 15.9586H14.3297V24.1445C19.9648 23.2273 24.2148 18.3953 24.2156 12.5711Z" fill="white"/>
</g>
<defs>
<clipPath id="clip0_2_26">
<rect width="25" height="25" fill="white"/>
</clipPath>
</defs>
</svg>
