<svg width="15" height="15" viewBox="0 0 25 25" fill="none" xmlns="http://www.w3.org/2000/svg">
<g clip-path="url(#clip0_2_21)">
<path d="M19.4583 1.5625H5.54167C3.34403 1.5625 1.5625 3.34403 1.5625 5.54167V19.4583C1.5625 21.656 3.34403 23.4375 5.54167 23.4375H19.4583C21.656 23.4375 23.4375 21.656 23.4375 19.4583V5.54167C23.4375 3.34403 21.656 1.5625 19.4583 1.5625Z" stroke="white" stroke-width="1.91" stroke-miterlimit="10"/>
<path d="M12.5 17.4688C15.2442 17.4688 17.4688 15.2442 17.4688 12.5C17.4688 9.75584 15.2442 7.53125 12.5 7.53125C9.75584 7.53125 7.53125 9.75584 7.53125 12.5C7.53125 15.2442 9.75584 17.4688 12.5 17.4688Z" stroke="white" stroke-width="1.91" stroke-miterlimit="10"/>
<path d="M18.9583 7.53126C19.781 7.53126 20.4479 6.86435 20.4479 6.04168C20.4479 5.219 19.781 4.55209 18.9583 4.55209C18.1357 4.55209 17.4688 5.219 17.4688 6.04168C17.4688 6.86435 18.1357 7.53126 18.9583 7.53126Z" fill="white" stroke="#FAFAFA"/>
</g>
<defs>
<clipPath id="clip0_2_21">
<rect width="25" height="25" fill="white"/>
</clipPath>
</defs>
</svg>
