<svg width="15" height="15" viewBox="0 0 25 25" fill="none" xmlns="http://www.w3.org/2000/svg">
<path d="M1.33021 9.22709C2.71458 14.7271 10.274 22.2917 15.7729 23.6698C16.5152 23.858 17.2779 23.9538 18.0438 23.9552C19.499 23.9545 20.9318 23.5969 22.2167 22.9135C22.6668 22.6784 23.0554 22.3407 23.3511 21.9277C23.6467 21.5148 23.8411 21.0381 23.9185 20.5361C23.996 20.0342 23.9543 19.521 23.797 19.0382C23.6396 18.5553 23.3709 18.1162 23.0125 17.7563L20.8396 15.5833C20.379 15.1229 19.7904 14.8119 19.1504 14.691C18.5105 14.57 17.849 14.6447 17.2521 14.9052C16.6826 15.1511 16.1632 15.4996 15.7198 15.9333C15.5344 16.1177 15.1927 16.1469 14.7021 16.0135C13.4158 15.4908 12.2473 14.7157 11.2655 13.7341C10.2837 12.7524 9.50839 11.5841 8.98542 10.2979C8.85417 9.80729 8.88125 9.46459 9.06667 9.28021C9.50086 8.83615 9.84972 8.31605 10.0958 7.74584C10.3558 7.14919 10.4301 6.48812 10.3092 5.84865C10.1882 5.20918 9.87759 4.62092 9.41771 4.16042L7.24479 1.98854C6.889 1.6284 6.45267 1.35802 5.9718 1.19972C5.49093 1.04142 4.97932 0.999745 4.47917 1.07813C3.97335 1.15241 3.49239 1.34573 3.07588 1.64218C2.65936 1.93863 2.31918 2.32974 2.08333 2.78334C1.03406 4.76111 0.7653 7.06066 1.33021 9.22709ZM3.93021 3.75C4.01524 3.58724 4.13765 3.44696 4.2874 3.34066C4.43714 3.23437 4.60996 3.16511 4.79167 3.13854C4.8492 3.12938 4.90737 3.12485 4.96563 3.125C5.11559 3.12495 5.26408 3.15467 5.40247 3.21242C5.54087 3.27018 5.66643 3.35483 5.77187 3.46146L7.94375 5.63334C8.10708 5.79475 8.21815 6.00152 8.26254 6.22682C8.30693 6.45213 8.2826 6.68557 8.19271 6.89688C8.05045 7.236 7.84747 7.5463 7.59375 7.8125C7.22116 8.20945 6.96635 8.70223 6.85782 9.23571C6.74928 9.7692 6.7913 10.3224 6.97917 10.8333C7.73125 13.6458 11.3594 17.2698 14.1667 18.0208C14.6796 18.2084 15.2347 18.2492 15.7696 18.1388C16.3045 18.0284 16.798 17.7711 17.1948 17.3958C17.4594 17.1424 17.7679 16.9391 18.1052 16.7958C18.3166 16.7057 18.5503 16.6813 18.7758 16.7257C19.0013 16.7701 19.2083 16.8813 19.3698 17.0448L21.5417 19.2167C21.6693 19.343 21.7652 19.4978 21.8213 19.6684C21.8774 19.839 21.8923 20.0205 21.8646 20.1979C21.8375 20.3799 21.7676 20.5528 21.6605 20.7024C21.5535 20.852 21.4124 20.974 21.249 21.0583C19.728 21.8758 17.9527 22.0829 16.2844 21.6375C11.551 20.4594 4.54167 13.45 3.35 8.71875C2.90524 7.04893 3.11268 5.27243 3.93021 3.75Z" fill="white"/>
</svg>
