<svg width="15" height="15" viewBox="0 0 30 30" fill="none" xmlns="http://www.w3.org/2000/svg">
<g clip-path="url(#clip0_2_29)">
<path d="M15 24.0744C14.2681 24.0744 7.79686 24.0606 5.94936 23.565C5.26402 23.381 4.63912 23.02 4.13736 22.5182C3.63559 22.0165 3.2746 21.3916 3.09061 20.7062C2.58624 18.8269 2.58124 15.1612 2.58124 15.0062C2.58124 14.8512 2.58686 11.1856 3.09061 9.30623C3.27514 8.62099 3.63637 7.99622 4.13817 7.49442C4.63997 6.99262 5.26474 6.63138 5.94999 6.44686C7.79686 5.95123 14.2681 5.93686 15 5.93686C15.7319 5.93686 22.2031 5.95061 24.0512 6.44623C24.7364 6.63063 25.3611 6.99175 25.8628 7.49345C26.3645 7.99516 26.7256 8.61985 26.91 9.30498V9.30561H26.9106C27.4137 11.185 27.4187 14.85 27.4187 15.005C27.4187 15.16 27.4131 18.8256 26.91 20.705C26.7256 21.3904 26.3644 22.0154 25.8624 22.5172C25.3605 23.019 24.7355 23.3802 24.05 23.5644C22.2031 24.06 15.7319 24.0744 15 24.0744Z" fill="white"/>
<path d="M13.0544 18.7412C12.8886 18.7412 12.7297 18.6754 12.6124 18.5582C12.4952 18.441 12.4294 18.282 12.4294 18.1162V11.8956C12.429 11.7858 12.4576 11.6778 12.5124 11.5825C12.5672 11.4873 12.6461 11.4082 12.7413 11.3533C12.8364 11.2983 12.9444 11.2695 13.0542 11.2697C13.1641 11.2699 13.2719 11.2991 13.3669 11.3544L18.7538 14.465C18.8488 14.5199 18.9277 14.5987 18.9825 14.6938C19.0374 14.7888 19.0662 14.8965 19.0662 15.0062C19.0662 15.1159 19.0374 15.2237 18.9825 15.3187C18.9277 15.4137 18.8488 15.4926 18.7538 15.5475L13.3669 18.6581C13.2717 18.7124 13.164 18.7411 13.0544 18.7412Z" fill="black"/>
</g>
<defs>
<clipPath id="clip0_2_29">
<rect width="30" height="30" fill="white"/>
</clipPath>
</defs>
</svg>
