<svg width="50" height="51" viewBox="0 0 50 51" fill="none" xmlns="http://www.w3.org/2000/svg">
<g clip-path="url(#clip0_12_5)">
<path d="M49.949 12.2134C49.9211 10.9315 49.5302 9.61658 48.7156 8.45375C47.2855 6.4071 45.0659 5.29155 42.5263 5.44047C39.35 5.63797 35.3262 6.9957 31.4349 8.30771L29.5003 8.95562C27.9012 9.48753 26.3726 9.56329 24.4372 9.65969C21.9245 9.78483 18.801 9.93871 14.3976 11.2118C7.75627 13.1357 3.1726 16.458 1.14685 20.8165C0.393663 22.4326 0.0391438 24.1741 0.0271262 25.9574C0.0224236 25.9621 -0.000305301 25.983 -0.000305301 25.983V31.3831C-0.0102329 33.3336 0.420572 35.3405 1.28793 37.2976C3.61124 42.5208 10.3367 46.4602 16.9341 46.4602C21.5347 46.4602 25.807 44.6374 29.2895 41.1868C32.3383 38.1683 33.4332 36.223 34.6007 34.1649C35.408 32.739 36.2348 31.2689 37.8536 29.2975C39.2398 27.6072 41.0142 26.7811 42.8923 25.907C45.5529 24.6678 48.3042 23.3864 49.6629 19.6662C49.9111 18.9788 50.0211 18.2429 49.9864 17.498L49.9992 12.2665C49.9838 12.2416 49.9618 12.2291 49.949 12.2134ZM3.59505 21.9553C5.28378 18.3249 9.27832 15.507 15.1476 13.8068C19.2474 12.6192 22.0726 12.4799 24.5681 12.3548C26.6255 12.2542 28.4041 12.1643 30.3494 11.5172L32.2967 10.8654C36.0217 9.60849 39.8733 8.30771 42.6927 8.13319L42.9754 8.12536C44.3856 8.12536 45.6674 8.80853 46.5005 9.99984C47.2451 11.0647 47.4836 12.3422 47.1236 13.3326C46.1478 16.0003 44.2088 16.9066 41.7475 18.0514C39.7772 18.9707 37.5419 20.0123 35.7633 22.1784C34.0011 24.3293 33.1071 25.9043 32.2466 27.4324C31.1347 29.4038 30.1694 31.1061 27.386 33.8618C24.42 36.8038 20.8069 38.3541 16.9322 38.3541C10.7876 38.3541 5.40579 34.5087 3.75519 30.795C2.80398 28.6485 2.00376 25.3805 3.59505 21.9553Z" fill="#164F03"/>
<path d="M16.9346 35.6506C20.1261 35.6506 23.0033 34.4044 25.4865 31.939C27.9992 29.4534 28.8357 27.9768 29.8912 26.1081C30.7682 24.5539 31.7596 22.7978 33.6767 20.4624C35.8451 17.8204 38.4895 16.5896 40.6106 15.6013C43.1696 14.4074 44.0448 13.8969 44.5861 12.4057C44.6101 12.3014 44.5513 11.92 44.2875 11.5467C44.0991 11.276 43.6751 10.8228 42.9778 10.8228C40.3979 10.9808 36.72 12.2215 33.1678 13.4212L31.2047 14.0793C28.9055 14.8424 26.8693 14.9435 24.7095 15.0519C22.3527 15.1687 19.695 15.3022 15.9008 16.3994C10.8025 17.8755 7.3937 20.1886 6.04198 23.0906C4.8794 25.5955 5.49909 28.0662 6.22511 29.6961C7.49793 32.5608 11.9552 35.6506 16.9346 35.6506ZM16.6953 20.6623C20.2141 20.6623 23.067 22.664 23.067 25.1381C23.067 27.6074 20.2141 29.6125 16.6953 29.6125C13.1734 29.6125 10.32 27.6072 10.32 25.1381C10.32 22.664 13.1734 20.6623 16.6953 20.6623Z" fill="#164F03"/>
</g>
<defs>
<clipPath id="clip0_12_5">
<rect width="50" height="50" fill="white" transform="translate(0 0.943848)"/>
</clipPath>
</defs>
</svg>
