<svg width="52" height="50" viewBox="0 0 75 76" fill="none" xmlns="http://www.w3.org/2000/svg">
<g clip-path="url(#clip0_12_5)">
<path d="M74.9238 17.8483C74.8818 15.9254 74.2956 13.9531 73.0737 12.2088C70.9286 9.13885 67.5992 7.46553 63.7897 7.6889C59.0253 7.98516 52.9895 10.0218 47.1525 11.9898L44.2507 12.9616C41.852 13.7595 39.5591 13.8731 36.6561 14.0177C32.887 14.2054 28.2017 14.4363 21.5966 16.3459C11.6346 19.2317 4.75914 24.2152 1.72052 30.7529C0.590731 33.1771 0.0589522 35.7893 0.0409258 38.4643C0.033872 38.4713 -0.00022144 38.5027 -0.00022144 38.5027V46.6028C-0.0151128 49.5286 0.631094 52.539 1.93213 55.4745C5.4171 63.3093 15.5052 69.2185 25.4013 69.2185C32.3023 69.2185 38.7107 66.4843 43.9344 61.3084C48.5076 56.7807 50.15 53.8627 51.9013 50.7755C53.1122 48.6366 54.3525 46.4315 56.7806 43.4744C58.8599 40.939 61.5215 39.6999 64.3387 38.3886C68.3296 36.53 72.4565 34.6078 74.4946 29.0275C74.8669 27.9964 75.0319 26.8925 74.9798 25.7753L74.999 17.9279C74.9759 17.8907 74.943 17.8719 74.9238 17.8483ZM5.39281 32.4611C7.92591 27.0156 13.9177 22.7888 22.7217 20.2384C28.8714 18.4569 33.1092 18.2481 36.8524 18.0603C39.9384 17.9095 42.6063 17.7747 45.5243 16.804L48.4453 15.8263C54.0327 13.9409 59.8102 11.9898 64.0393 11.728L64.4633 11.7162C66.5787 11.7162 68.5013 12.741 69.751 14.528C70.8678 16.1253 71.2256 18.0415 70.6856 19.5271C69.2219 23.5286 66.3134 24.888 62.6215 26.6053C59.666 27.9843 56.3131 29.5467 53.6452 32.7958C51.0019 36.0221 49.6609 38.3847 48.3701 40.6768C46.7023 43.6339 45.2543 46.1874 41.0792 50.3209C36.6302 54.7339 31.2105 57.0593 25.3986 57.0593C16.1816 57.0593 8.10891 51.2912 5.63303 45.7207C4.2062 42.501 3.00588 37.599 5.39281 32.4611Z" fill="#164F03"/>
<path d="M25.4019 53.0041C30.1891 53.0041 34.5049 51.1348 38.2297 47.4367C41.9988 43.7083 43.2536 41.4934 44.8367 38.6903C46.1523 36.3591 47.6395 33.7248 50.5151 30.2218C53.7676 26.2588 57.7342 24.4126 60.9159 22.9302C64.7543 21.1393 66.0671 20.3736 66.8791 18.1367C66.9152 17.9804 66.827 17.4082 66.4312 16.8482C66.1487 16.4422 65.5126 15.7623 64.4667 15.7623C60.5969 15.9994 55.08 17.8604 49.7517 19.6599L46.8071 20.6471C43.3582 21.7918 40.3039 21.9434 37.0642 22.1061C33.5291 22.2812 29.5425 22.4815 23.8513 24.1274C16.2038 26.3415 11.0905 29.8112 9.06297 34.1641C7.31911 37.9215 8.24864 41.6275 9.33767 44.0724C11.2469 48.3693 17.9327 53.0041 25.4019 53.0041ZM25.043 30.5216C30.3212 30.5216 34.6005 33.5242 34.6005 37.2353C34.6005 40.9393 30.3212 43.947 25.043 43.947C19.7601 43.947 15.48 40.9389 15.48 37.2353C15.48 33.5242 19.7601 30.5216 25.043 30.5216Z" fill="#164F03"/>
</g>
<defs>
<clipPath id="clip0_12_5">
<rect width="75" height="75" fill="white" transform="translate(0 0.943848)"/>
</clipPath>
</defs>
</svg>
