<svg width="50" height="50" viewBox="0 0 50 50" fill="none" xmlns="http://www.w3.org/2000/svg">
<g clip-path="url(#clip0_13_53)">
<path d="M49.4063 31.25L41.5938 15.625H43.75C44.6125 15.625 45.3125 14.925 45.3125 14.0625C45.3125 13.2 44.6125 12.5 43.75 12.5H41.2813C37.9813 8.92188 33.3406 6.62187 28.1625 6.40625L28.125 6.25C28.125 4.525 26.725 3.125 25 3.125C23.275 3.125 21.875 4.525 21.875 6.25V6.40625C16.6219 6.63437 11.9438 8.92812 8.60313 12.4906L6.25 12.5C5.3875 12.5 4.6875 13.2 4.6875 14.0625C4.6875 14.925 5.3875 15.625 6.25 15.625H8.40625L0.59375 31.25H0C0 34.6875 4.1875 37.5 9.375 37.5C14.5625 37.5 18.75 34.6875 18.75 31.25H18.1562L10.1875 15.3437C10.3875 15.2219 10.5562 15.0656 10.6844 14.8813C13.4125 11.6969 17.3969 9.66562 21.8562 9.5625L21.875 43.75H18.75V46.875H12.5V50H37.5V46.875H31.25V43.75H28.125V9.5625C32.5562 9.65625 36.4969 11.6937 39.1375 14.8531C39.3031 15.1156 39.5031 15.3063 39.7406 15.4344L31.8437 31.25H31.25C31.25 34.6875 35.4375 37.5 40.625 37.5C45.8125 37.5 50 34.6875 50 31.25H49.4063ZM15.625 31.25H3.125L9.375 18.9375L15.625 31.25ZM34.375 31.25L40.625 18.9375L46.875 31.25H34.375Z" fill="#164F03"/>
</g>
<defs>
<clipPath id="clip0_13_53">
<rect width="50" height="50" fill="white"/>
</clipPath>
</defs>
</svg>
