<svg width="50" height="50" viewBox="0 0 75 75" fill="none" xmlns="http://www.w3.org/2000/svg">
<g clip-path="url(#clip0_13_53)">
<path d="M74.1094 46.875L62.3906 23.4375H65.625C66.9187 23.4375 67.9688 22.3875 67.9688 21.0938C67.9688 19.8 66.9187 18.75 65.625 18.75H61.9219C56.9719 13.3828 50.0109 9.93281 42.2438 9.60938L42.1875 9.375C42.1875 6.7875 40.0875 4.6875 37.5 4.6875C34.9125 4.6875 32.8125 6.7875 32.8125 9.375V9.60938C24.9328 9.95156 17.9156 13.3922 12.9047 18.7359L9.375 18.75C8.08125 18.75 7.03125 19.8 7.03125 21.0938C7.03125 22.3875 8.08125 23.4375 9.375 23.4375H12.6094L0.890625 46.875H0C0 52.0312 6.28125 56.25 14.0625 56.25C21.8438 56.25 28.125 52.0312 28.125 46.875H27.2344L15.2812 23.0156C15.5813 22.8328 15.8344 22.5984 16.0266 22.3219C20.1187 17.5453 26.0953 14.4984 32.7844 14.3438L32.8125 65.625H28.125V70.3125H18.75V75H56.25V70.3125H46.875V65.625H42.1875V14.3438C48.8344 14.4844 54.7453 17.5406 58.7062 22.2797C58.9547 22.6734 59.2547 22.9594 59.6109 23.1516L47.7656 46.875H46.875C46.875 52.0312 53.1562 56.25 60.9375 56.25C68.7188 56.25 75 52.0312 75 46.875H74.1094ZM23.4375 46.875H4.6875L14.0625 28.4062L23.4375 46.875ZM51.5625 46.875L60.9375 28.4062L70.3125 46.875H51.5625Z" fill="#164F03"/>
</g>
<defs>
<clipPath id="clip0_13_53">
<rect width="75" height="75" fill="white"/>
</clipPath>
</defs>
</svg>
