<svg width="50" height="50" viewBox="0 0 75 76" fill="none" xmlns="http://www.w3.org/2000/svg">
<path d="M64.1669 18.1732H59.1984C59.1801 17.8802 59.1668 17.5995 59.1668 17.34C59.1668 16.8939 59.2043 16.3902 59.2438 15.8567C59.3929 13.8435 59.5788 11.3381 57.9247 9.19923C56.6853 7.59684 54.8231 6.98014 53.1795 6.43595C52.38 6.17125 51.6249 5.92105 51.0314 5.59439C50.5715 5.34112 50.0228 4.84659 49.4418 4.32291C48.2721 3.26851 46.8165 1.95659 44.8078 1.49209C44.3389 1.38369 43.8395 1.32861 43.3233 1.32861C42.107 1.32861 40.9786 1.61924 39.8876 1.90034C39.0096 2.12652 38.1806 2.33994 37.5001 2.33994C36.8195 2.33994 35.9904 2.12652 35.1125 1.90034C34.0214 1.61924 32.893 1.32861 31.6767 1.32861C31.1604 1.32861 30.6609 1.38355 30.1922 1.49209C28.1832 1.95659 26.7276 3.26895 25.5578 4.3232C24.977 4.84688 24.4282 5.34141 23.9684 5.59454C23.3753 5.9212 22.6199 6.1714 21.8204 6.43609C20.1772 6.98029 18.3147 7.59713 17.0756 9.19938C15.4216 11.3382 15.6072 13.8435 15.7566 15.8565C15.7962 16.39 15.8335 16.8939 15.8335 17.3398C15.8335 17.5993 15.8202 17.8801 15.8019 18.1732H10.8333C4.85978 18.1732 0 23.033 0 29.0065V36.5065H7.50001C9.66374 36.5065 11.6794 35.8665 13.3729 34.7693C13.6918 44.9539 16.0087 54.4812 19.9812 61.8148C24.5309 70.2141 30.7526 74.8397 37.5001 74.8397C44.2476 74.8397 50.4691 70.2142 55.0188 61.8148C58.9913 54.481 61.3082 44.9539 61.627 34.769C63.3205 35.8662 65.3363 36.5063 67.5 36.5063H75V29.0063C75.0001 23.033 70.1404 18.1732 64.1669 18.1732ZM13.3333 25.6733C13.3333 28.8899 10.7165 31.5067 7.50001 31.5067H4.99996V29.0066C4.99996 25.7901 7.61676 23.1733 10.8333 23.1733H13.3333V25.6733ZM20.7428 15.4872C20.6435 14.1468 20.5495 12.8805 21.0308 12.2584C21.3359 11.8638 22.4284 11.502 23.3923 11.1828C24.3258 10.8736 25.3837 10.5233 26.3801 9.97458C27.3465 9.44255 28.139 8.72814 28.9055 8.03702C29.7616 7.26534 30.57 6.53658 31.3187 6.36329C31.4188 6.34015 31.539 6.32843 31.6767 6.32843C32.2596 6.32843 33.0398 6.5294 33.8655 6.7421C34.9531 7.02233 36.186 7.33976 37.4999 7.33976C38.8139 7.33976 40.0467 7.02233 41.1347 6.7421C41.9605 6.5294 42.7404 6.32843 43.3233 6.32843C43.461 6.32843 43.5814 6.34015 43.6813 6.36329C44.4297 6.53644 45.2383 7.26505 46.0943 8.03659C46.8609 8.72755 47.6535 9.44211 48.62 9.97414C49.6161 10.5226 50.6742 10.873 51.6077 11.1822C52.5717 11.5015 53.6642 11.8632 53.9695 12.2578C54.4507 12.88 54.3566 14.1463 54.2575 15.4868C54.2128 16.0875 54.1668 16.7088 54.1668 17.3398C54.1668 17.971 54.2128 18.5921 54.2575 19.1929C54.3568 20.532 54.4503 21.7969 53.9707 22.4201L53.9216 22.4495C53.9248 22.4546 53.9274 22.4599 53.9305 22.4649C53.5823 22.8427 52.5366 23.1898 51.6079 23.4972C50.6742 23.8064 49.6163 24.1566 48.6199 24.7052C47.6534 25.2374 46.8607 25.952 46.0943 26.6429C45.2383 27.4145 44.43 28.1432 43.6814 28.3164C43.5814 28.3395 43.4611 28.3512 43.3236 28.3512C43.3236 28.3512 43.3236 28.3512 43.3234 28.3512C42.7406 28.3511 41.9604 28.1502 41.1344 27.9376C40.0467 27.6573 38.8137 27.3399 37.4996 27.3399C36.1857 27.3399 34.9529 27.6573 33.8649 27.9376C33.039 28.1502 32.2591 28.3512 31.6763 28.3512C31.5386 28.3512 31.4183 28.3395 31.3183 28.3164C30.5697 28.1432 29.7613 27.4146 28.9054 26.6429C28.1388 25.9521 27.3462 25.2375 26.3798 24.7054C25.3834 24.1569 24.3254 23.8064 23.3918 23.4973C22.4633 23.1898 21.4177 22.8428 21.0692 22.465C21.0724 22.4601 21.075 22.4546 21.0781 22.4495L21.0288 22.4196C20.5493 21.7968 20.6429 20.532 20.7422 19.1926C20.7868 18.5918 20.8328 17.9706 20.8328 17.3395C20.8333 16.7091 20.7873 16.0878 20.7428 15.4872ZM50.6223 59.4337C48.4305 63.4803 45.8654 66.4285 43.116 68.1334C41.6097 67.9662 40.0614 67.0955 40.0033 62.5989C41.2329 61.4907 42.303 59.7829 42.8333 58.1735C43.238 56.8151 42.1921 55.6913 40.4999 55.6734C38.5 55.6734 36.4999 55.6734 34.4999 55.6734C32.8079 55.6913 31.762 56.8153 32.1666 58.1735C32.6968 59.7827 33.7668 61.4907 34.9965 62.5989C34.9386 67.0954 33.3902 67.9662 31.8839 68.1334C29.1345 66.4286 26.5694 63.4804 24.3775 59.4337C20.4797 52.238 18.3331 42.6158 18.3331 32.34C18.3331 30.5674 18.5784 28.8144 19.0531 27.1287C19.9486 27.6231 20.9174 27.945 21.8202 28.244C22.6199 28.5088 23.3751 28.7589 23.9684 29.0856C24.4282 29.3388 24.977 29.8334 25.5579 30.3569C26.7276 31.4113 28.1832 32.7234 30.1921 33.1879C30.661 33.2963 31.1604 33.3512 31.6766 33.3512C32.893 33.3512 34.0212 33.0606 35.1124 32.7795C35.9903 32.5534 36.8194 32.3399 37.4999 32.3399C38.1805 32.3399 39.0097 32.5533 39.8876 32.7795C40.9786 33.0604 42.1067 33.3509 43.3231 33.3512C43.3233 33.3512 43.3234 33.3512 43.3236 33.3512C43.8398 33.3512 44.339 33.2963 44.8079 33.1879C46.8168 32.7234 48.2723 31.4111 49.4419 30.3569C50.0229 29.8332 50.5716 29.3385 51.0314 29.0854C51.6246 28.7587 52.38 28.5086 53.1795 28.2439C54.0824 27.9449 55.051 27.6229 55.9464 27.1287C56.4213 28.8143 56.6664 30.5674 56.6664 32.34C56.6667 42.6159 54.5201 52.238 50.6223 59.4337ZM70.0002 31.5065H67.5001C64.2836 31.5065 61.6668 28.8897 61.6668 25.6732V23.1731H64.1669C67.3834 23.1731 70.0002 25.7899 70.0002 29.0065V31.5065Z" fill="#164F03"/>
<path d="M54.1667 34.8394H45.8333V39.8393H54.1667V34.8394Z" fill="#164F03"/>
<path d="M29.1667 34.8394H20.8333V39.8393H29.1667V34.8394Z" fill="#164F03"/>
</svg>
