<svg width="50" height="51" viewBox="0 0 50 51" fill="none" xmlns="http://www.w3.org/2000/svg">
<g clip-path="url(#clip0_13_32)">
<path d="M42.7779 12.3103H39.4656C39.4534 12.115 39.4445 11.9279 39.4445 11.7548C39.4445 11.4574 39.4695 11.1216 39.4959 10.7659C39.5953 9.42384 39.7192 7.75353 38.6165 6.32765C37.7902 5.25938 36.5487 4.84825 35.453 4.48546C34.92 4.30899 34.4166 4.14219 34.021 3.92442C33.7143 3.75557 33.3485 3.42588 32.9612 3.07676C32.1814 2.37383 31.211 1.49922 29.8718 1.18955C29.5592 1.11729 29.2263 1.08057 28.8822 1.08057C28.0713 1.08057 27.3191 1.27432 26.5918 1.46172C26.0064 1.6125 25.4538 1.75479 25 1.75479C24.5463 1.75479 23.9936 1.6125 23.4083 1.46172C22.6809 1.27432 21.9287 1.08057 21.1178 1.08057C20.7736 1.08057 20.4406 1.11719 20.1282 1.18955C18.7888 1.49922 17.8184 2.37412 17.0385 3.07696C16.6513 3.42608 16.2855 3.75577 15.9789 3.92452C15.5835 4.14229 15.0799 4.30909 14.5469 4.48555C13.4515 4.84835 12.2098 5.25958 11.3837 6.32774C10.2811 7.75363 10.4048 9.42384 10.5044 10.7658C10.5308 11.1215 10.5557 11.4574 10.5557 11.7547C10.5557 11.9277 10.5468 12.1149 10.5346 12.3103H7.22218C3.23985 12.3103 0 15.5501 0 19.5325V24.5325H5.00001C6.44249 24.5325 7.78625 24.1058 8.91525 23.3744C9.12785 30.1641 10.6725 36.5156 13.3208 41.4047C16.3539 47.0042 20.5017 50.088 25 50.088C29.4984 50.088 33.6461 47.0043 36.6792 41.4047C39.3275 36.5155 40.8722 30.1641 41.0847 23.3742C42.2137 24.1056 43.5575 24.5324 45 24.5324H50V19.5324C50.0001 15.5501 46.7603 12.3103 42.7779 12.3103ZM8.88889 17.3104C8.88889 19.4547 7.14435 21.1993 5.00001 21.1993H3.33331V19.5326C3.33331 17.3882 5.07784 15.6437 7.22218 15.6437H8.88889V17.3104V17.3104ZM13.8285 10.5196C13.7623 9.62599 13.6996 8.78185 14.0205 8.3671C14.224 8.10402 14.9523 7.86281 15.5949 7.65001C16.2172 7.44386 16.9225 7.21036 17.5868 6.84454C18.231 6.48985 18.7593 6.01358 19.2704 5.55284C19.8411 5.03839 20.38 4.55255 20.8791 4.43702C20.9458 4.42159 21.026 4.41378 21.1178 4.41378C21.5064 4.41378 22.0265 4.54776 22.577 4.68956C23.3021 4.87637 24.124 5.088 25 5.088C25.8759 5.088 26.6978 4.87637 27.4231 4.68956C27.9737 4.54776 28.4936 4.41378 28.8822 4.41378C28.974 4.41378 29.0543 4.42159 29.1209 4.43702C29.6198 4.55245 30.1589 5.03819 30.7296 5.55255C31.2406 6.01319 31.769 6.48956 32.4133 6.84425C33.0774 7.20988 33.7828 7.44347 34.4051 7.64962C35.0478 7.86251 35.7761 8.10363 35.9797 8.36671C36.3005 8.78146 36.2378 9.6257 36.1717 10.5194C36.1419 10.9198 36.1112 11.334 36.1112 11.7547C36.1112 12.1755 36.1419 12.5896 36.1717 12.9901C36.2379 13.8828 36.3002 14.7261 35.9804 15.1415L35.9477 15.1612C35.9499 15.1646 35.9516 15.1681 35.9537 15.1714C35.7216 15.4233 35.0244 15.6547 34.4052 15.8596C33.7828 16.0658 33.0775 16.2992 32.4132 16.665C31.7689 17.0198 31.2405 17.4961 30.7296 17.9568C30.1589 18.4711 29.62 18.957 29.121 19.0724C29.0543 19.0878 28.9741 19.0956 28.8824 19.0956C28.8824 19.0956 28.8824 19.0956 28.8823 19.0956C28.4937 19.0955 27.9736 18.9617 27.4229 18.8199C26.6978 18.633 25.8758 18.4214 24.9998 18.4214C24.1238 18.4214 23.3019 18.633 22.5766 18.8199C22.026 18.9617 21.5061 19.0956 21.1175 19.0956C21.0257 19.0956 20.9455 19.0878 20.8788 19.0724C20.3798 18.957 19.8409 18.4712 19.2703 17.9568C18.7592 17.4962 18.2308 17.0199 17.5866 16.6651C16.9223 16.2994 16.2169 16.0658 15.5946 15.8597C14.9755 15.6547 14.2784 15.4234 14.0461 15.1715C14.0483 15.1682 14.05 15.1646 14.0521 15.1612L14.0192 15.1412C13.6995 14.726 13.7619 13.8828 13.8282 12.9899C13.8578 12.5894 13.8885 12.1752 13.8885 11.7545C13.8889 11.3342 13.8582 10.92 13.8285 10.5196ZM33.7482 39.8173C32.287 42.515 30.5769 44.4805 28.744 45.6171C27.7398 45.5057 26.7076 44.9252 26.6689 41.9274C27.4886 41.1887 28.202 40.0501 28.5555 38.9771C28.8253 38.0716 28.1281 37.3223 27 37.3104C25.6667 37.3104 24.3333 37.3104 22.9999 37.3104C21.8719 37.3223 21.1747 38.0717 21.4444 38.9771C21.7979 40.05 22.5112 41.1887 23.331 41.9274C23.2924 44.9251 22.2601 45.5057 21.2559 45.6171C19.423 44.4806 17.7129 42.5151 16.2517 39.8173C13.6532 35.0202 12.2221 28.6053 12.2221 21.7548C12.2221 20.5731 12.3856 19.4044 12.7021 18.2806C13.299 18.6102 13.9449 18.8248 14.5468 19.0242C15.0799 19.2007 15.5834 19.3674 15.9789 19.5852C16.2855 19.754 16.6513 20.0837 17.0386 20.4328C17.8184 21.1357 18.7888 22.0104 20.1281 22.3201C20.4407 22.3923 20.7736 22.4289 21.1177 22.4289C21.9287 22.4289 22.6808 22.2352 23.4082 22.0478C23.9935 21.8971 24.5462 21.7547 25 21.7547C25.4537 21.7547 26.0065 21.897 26.5918 22.0478C27.3191 22.2351 28.0712 22.4288 28.8821 22.4289C28.8822 22.4289 28.8823 22.4289 28.8824 22.4289C29.2265 22.4289 29.5593 22.3923 29.8719 22.3201C31.2112 22.0104 32.1815 21.1356 32.9613 20.4328C33.3486 20.0836 33.7144 19.7538 34.021 19.5851C34.4164 19.3673 34.92 19.2005 35.453 19.0241C36.055 18.8247 36.7007 18.6101 37.2976 18.2806C37.6142 19.4043 37.7776 20.5731 37.7776 21.7548C37.7778 28.6054 36.3468 35.0202 33.7482 39.8173ZM46.6668 21.1992H45.0001C42.8557 21.1992 41.1112 19.4546 41.1112 17.3103V15.6436H42.7779C44.9223 15.6436 46.6668 17.3881 46.6668 19.5325V21.1992Z" fill="#164F03"/>
<path d="M36.1111 23.421H30.5555V26.7543H36.1111V23.421Z" fill="#164F03"/>
<path d="M19.4445 23.421H13.8889V26.7543H19.4445V23.421Z" fill="#164F03"/>
</g>
<defs>
<clipPath id="clip0_13_32">
<rect width="50" height="50" fill="white" transform="translate(0 0.584229)"/>
</clipPath>
</defs>
</svg>
