<svg width="50" height="50" viewBox="0 0 75 76" fill="none" xmlns="http://www.w3.org/2000/svg">
<path d="M15.2536 65.0379C14.2295 65.0379 13.2555 64.8541 12.3087 64.5943V70.9717C12.3087 71.9431 13.0964 72.7309 14.0679 72.7309H22.2766C23.2478 72.7309 24.0358 71.9432 24.0358 70.9717V66.4847C22.4418 66.0216 20.956 65.2338 19.7114 64.0996C18.3086 64.7144 16.7972 65.0379 15.2536 65.0379Z" fill="#164F03"/>
<path d="M40.1221 66.9487C39.7815 66.9487 39.4496 66.9011 39.1137 66.8728V70.9716C39.1137 71.9431 39.9014 72.7309 40.873 72.7309H49.083C50.0544 72.7309 50.8419 71.9432 50.8419 70.9716V60.7211C48.6089 64.5086 44.6338 66.9487 40.1221 66.9487Z" fill="#164F03"/>
<path d="M54.7287 46.1166C46.7088 46.1166 41.145 34.9631 40.2101 26.2449C34.6439 25.5086 30.6945 22.2883 30.6945 18.1818C30.6945 17.5842 30.7901 17.0097 30.9492 16.4548C29.7292 17.1432 28.7051 18.1771 28.0068 19.446C26.8307 18.596 25.4096 18.0974 23.8808 18.0974C20.3235 18.0974 17.3591 20.7863 16.6756 24.3585C11.3297 25.0163 7.08864 29.3919 6.29258 35.0243C2.7378 35.578 0 38.8058 0 42.7442C0 47.0683 3.29284 50.5753 7.35608 50.5753C7.47368 50.5753 7.58381 50.5448 7.70019 50.5387C7.49812 51.2823 7.35608 52.054 7.35608 52.8661C7.35608 57.5088 10.8913 61.2745 15.2536 61.2745C17.2968 61.2745 19.1391 60.4268 20.5418 59.072C21.7877 61.5095 24.1848 63.1855 26.9766 63.1855C29.5861 63.1855 31.8632 61.7301 33.1691 59.551C34.7957 61.7487 37.2899 63.1855 40.1221 63.1855C44.5614 63.1855 48.2081 59.7066 48.8672 55.1765C49.4075 55.2648 49.9453 55.3518 50.5063 55.3518C56.5027 55.3518 61.361 50.1762 61.361 43.7926C61.361 43.6481 61.3378 43.511 61.3317 43.3677C59.4009 45.0657 57.1814 46.1166 54.7287 46.1166Z" fill="#164F03"/>
<path d="M66.7915 13.723C65.7624 13.723 64.7824 13.8311 63.8746 14.0196C64.2324 13.361 64.4356 12.6063 64.4356 11.8042C64.4356 9.23714 62.3545 7.15611 59.7875 7.15611C59.3774 7.15611 58.98 7.20972 58.6012 7.30946C58.1613 5.50473 56.4885 4.15698 54.4689 4.15698C52.498 4.15698 50.8558 5.44409 50.3672 7.18437C50.2001 7.16604 50.0306 7.15611 49.8586 7.15611C47.2915 7.15611 45.2105 9.23714 45.2105 11.8042C45.2105 12.6233 45.4233 13.3925 45.795 14.0609C44.8294 13.8446 43.7756 13.7232 42.6662 13.7232C38.1326 13.7232 34.4577 15.7199 34.4577 18.182C34.4577 20.6456 38.1327 22.6411 42.6662 22.6411C43.1 22.6411 43.5153 22.6067 43.9303 22.5712C43.9022 22.9657 43.8337 23.3454 43.8337 23.7484C43.8337 31.064 48.7117 42.3535 54.7286 42.3535C60.7447 42.3535 65.6225 31.064 65.6225 23.7484C65.6225 23.3452 65.554 22.9657 65.5246 22.5712C65.9399 22.6067 66.3562 22.6411 66.7912 22.6411C71.3249 22.6411 74.9997 20.6456 74.9997 18.182C75 15.7197 71.325 13.723 66.7915 13.723ZM50.7072 25.5709C49.8975 25.5709 49.242 24.9157 49.242 24.106C49.242 23.2962 49.8975 22.6408 50.7072 22.6408C51.517 22.6408 52.1724 23.296 52.1724 24.106C52.1724 24.9157 51.517 25.5709 50.7072 25.5709ZM58.7481 25.5709C57.9395 25.5709 57.2843 24.9157 57.2843 24.106C57.2843 23.2962 57.9395 22.6408 58.7481 22.6408C59.559 22.6408 60.2145 23.296 60.2145 24.106C60.2144 24.9157 59.5588 25.5709 58.7481 25.5709Z" fill="#164F03"/>
</svg>
