<svg width="50" height="51" viewBox="0 0 50 51" fill="none" xmlns="http://www.w3.org/2000/svg">
<path d="M10.1691 43.6732C9.48634 43.6732 8.837 43.5507 8.2058 43.3775V47.6291C8.2058 48.2767 8.7309 48.8019 9.37861 48.8019H14.851C15.4985 48.8019 16.0238 48.2768 16.0238 47.6291V44.6378C14.9612 44.3291 13.9707 43.8039 13.1409 43.0477C12.2057 43.4576 11.1981 43.6732 10.1691 43.6732Z" fill="#164F03"/>
<path d="M26.7481 44.9472C26.521 44.9472 26.2997 44.9154 26.0758 44.8966V47.6291C26.0758 48.2767 26.6009 48.8019 27.2486 48.8019H32.722C33.3696 48.8019 33.8946 48.2768 33.8946 47.6291V40.7954C32.4059 43.3204 29.7558 44.9472 26.7481 44.9472Z" fill="#164F03"/>
<path d="M36.4858 31.0591C31.1392 31.0591 27.43 23.6234 26.8067 17.8113C23.0959 17.3204 20.463 15.1735 20.463 12.4359C20.463 12.0374 20.5267 11.6545 20.6328 11.2845C19.8194 11.7435 19.1367 12.4327 18.6712 13.2787C17.8871 12.712 16.9398 12.3796 15.9205 12.3796C13.549 12.3796 11.5727 14.1722 11.1171 16.5536C7.55311 16.9922 4.72576 19.9092 4.19505 23.6642C1.8252 24.0333 0 26.1852 0 28.8108C0 31.6936 2.19523 34.0315 4.90405 34.0315C4.98246 34.0315 5.05587 34.0112 5.13346 34.0071C4.99875 34.5029 4.90405 35.0173 4.90405 35.5587C4.90405 38.6538 7.26087 41.1643 10.1691 41.1643C11.5312 41.1643 12.7594 40.5992 13.6945 39.696C14.5251 41.321 16.1232 42.4383 17.9844 42.4383C19.724 42.4383 21.2421 41.4681 22.1127 40.0153C23.1972 41.4805 24.8599 42.4383 26.7481 42.4383C29.7076 42.4383 32.1387 40.1191 32.5781 37.099C32.9384 37.1578 33.2969 37.2159 33.6709 37.2159C37.6685 37.2159 40.9073 33.7655 40.9073 29.5097C40.9073 29.4134 40.8918 29.322 40.8878 29.2265C39.6006 30.3584 38.1209 31.0591 36.4858 31.0591Z" fill="#164F03"/>
<path d="M44.5277 9.46328C43.8416 9.46328 43.1883 9.53537 42.583 9.66102C42.8216 9.22196 42.957 8.71885 42.957 8.18407C42.957 6.47271 41.5697 5.08536 39.8583 5.08536C39.5849 5.08536 39.32 5.1211 39.0675 5.18759C38.7742 3.98443 37.659 3.08594 36.3126 3.08594C34.9987 3.08594 33.9039 3.94401 33.5781 5.10419C33.4667 5.09197 33.3537 5.08536 33.239 5.08536C31.5277 5.08536 30.1403 6.47271 30.1403 8.18407C30.1403 8.73015 30.2822 9.24293 30.53 9.68852C29.8863 9.54433 29.1837 9.46338 28.4441 9.46338C25.4217 9.46338 22.9718 10.7945 22.9718 12.4359C22.9718 14.0784 25.4218 15.4087 28.4441 15.4087C28.7333 15.4087 29.0102 15.3858 29.2868 15.3621C29.2681 15.6251 29.2225 15.8782 29.2225 16.1469C29.2225 21.024 32.4744 28.5503 36.4857 28.5503C40.4965 28.5503 43.7483 21.024 43.7483 16.1469C43.7483 15.8781 43.7027 15.6251 43.683 15.3621C43.9599 15.3858 44.2375 15.4087 44.5275 15.4087C47.5499 15.4087 49.9998 14.0784 49.9998 12.4359C50 10.7944 47.55 9.46328 44.5277 9.46328ZM33.8048 17.3619C33.265 17.3619 32.828 16.9251 32.828 16.3853C32.828 15.8454 33.265 15.4085 33.8048 15.4085C34.3447 15.4085 34.7816 15.8453 34.7816 16.3853C34.7816 16.9251 34.3447 17.3619 33.8048 17.3619ZM39.1654 17.3619C38.6264 17.3619 38.1895 16.9251 38.1895 16.3853C38.1895 15.8454 38.6264 15.4085 39.1654 15.4085C39.706 15.4085 40.143 15.8453 40.143 16.3853C40.1429 16.9251 39.7059 17.3619 39.1654 17.3619Z" fill="#164F03"/>
</svg>
