<svg width="60" height="60" viewBox="0 0 60 60" fill="none" xmlns="http://www.w3.org/2000/svg">
<g clip-path="url(#clip0_10_104)">
<path d="M58.8047 13.9175L53.4844 6.89692C52.4062 5.47424 50.9297 4.67011 49.4062 4.67011H46.1016C46.125 3.95877 45.9141 3.21651 45.4922 2.65981C44.6719 1.57733 42.1875 0.0309388 41.3906 1.11341C40.5703 2.19589 41.7656 5.47424 42.5625 6.52578C42.6562 6.6495 42.7734 6.77321 42.8672 6.86599L38.2031 12.9588H11.9297C5.97656 12.9588 1.03125 18.866 0.515625 26.5361C0.46875 27.2474 0.890625 27.866 1.42969 27.866H2.32031V37.9175L0.46875 43.4227V56.2268L1.75781 59.2578H5.76562L3.58594 55.2681L4.54688 48.0619L9.53906 40.5773L11.6719 56.2887L12.9375 59.2578H17.1094L14.8828 55.3299L14.2969 48.0309L18.2109 42.4021C22.125 43.0206 26.5781 43.4227 31.4062 43.299L33.0938 56.165L34.4531 59.2268H38.3672L36.2812 55.2371V42.9897C37.0781 42.8969 37.8984 42.8041 38.6953 42.6804L40.4531 56.165L41.8125 59.2268H45.7266L43.6406 55.2371V40.6392C50.2734 32.7835 51.4219 19.5155 51.4219 19.5155H57C57.9141 19.5155 58.7578 18.866 59.2031 17.7835C59.7656 16.5155 59.5781 14.9382 58.8047 13.9175Z" fill="#D3CB0C"/>
</g>
<defs>
<clipPath id="clip0_10_104">
<rect width="60" height="60" fill="white"/>
</clipPath>
</defs>
</svg>
