<svg width="50" height="50" viewBox="0 0 50 50" fill="none" xmlns="http://www.w3.org/2000/svg">
<g clip-path="url(#clip0_2_68)">
<path d="M25 50C38.8077 50 50 38.8077 50 25C50 11.1923 38.8077 0 25 0C11.1923 0 0 11.1923 0 25C0 38.8077 11.1923 50 25 50ZM25 3.90625C36.6501 3.90625 46.0938 13.3499 46.0938 25C46.0938 36.6501 36.6501 46.0938 25 46.0938C13.3499 46.0938 3.90625 36.6501 3.90625 25C3.90625 13.3499 13.3499 3.90625 25 3.90625Z" fill="white"/>
<path d="M20.7703 35.4797C21.3807 36.09 22.3695 36.09 22.9798 35.4797L32.3548 26.1047C32.9652 25.4943 32.9652 24.5056 32.3548 23.8952L22.9798 14.5202C22.6746 14.215 22.2748 14.0625 21.875 14.0625C21.4752 14.0625 21.0754 14.215 20.7703 14.5203C20.16 15.1307 20.16 16.1194 20.7703 16.7298L29.0406 25L20.7702 33.2703C20.16 33.8807 20.16 34.8693 20.7703 35.4797Z" fill="white"/>
</g>
<defs>
<clipPath id="clip0_2_68">
<rect width="50" height="50" fill="white"/>
</clipPath>
</defs>
</svg>
