<svg width="75" height="75" viewBox="0 0 75 75" fill="none" xmlns="http://www.w3.org/2000/svg">
<path d="M57.0652 5.98632L49.2397 9.05977L44.4876 13.9511V20.0925C44.2827 20.0834 43.1437 20.0491 41.6925 20.016V18.7032C41.6925 17.8646 41.1335 17.3056 40.295 17.3056C39.4565 17.3056 38.8975 17.8646 38.8975 18.7032V19.9888C37.5236 19.9857 36.1304 20.0091 34.7049 20.0652V18.7032C34.7049 17.8647 34.1459 17.3057 33.3074 17.3057C32.4689 17.3057 31.9099 17.8647 31.9099 18.7032V20.1989C29.8486 20.311 27.9903 20.4543 26.3199 20.622V18.7031C26.3199 17.8646 25.7608 17.3056 24.9223 17.3056C24.0838 17.3056 23.5248 17.8646 23.5248 18.7031V20.925C21.5782 21.1651 20.0332 21.3954 19.2586 21.5146H19.2531L19.2449 21.5173C18.7462 21.599 18.4047 21.6759 17.9347 21.7575V19.2627C17.9347 18.4242 17.3757 17.8652 16.5372 17.8652C15.6987 17.8652 15.1397 18.4242 15.1397 19.2627V22.2734C11.8809 22.9076 9.57422 23.4556 8.15215 23.8429V20.9386C8.15215 20.1001 7.59314 19.5411 6.75463 19.5411C5.91612 19.5411 5.35712 20.1001 5.35712 20.9386V37.5696C6.33538 36.8709 7.17389 36.1716 8.15215 35.6126V26.7307C9.31203 26.3973 11.6633 25.7981 15.1397 25.1094V31.0024C15.1397 31.2819 15.2789 31.4216 15.2789 31.7012C16.1174 31.2819 16.9565 31.0008 17.9348 30.7213V24.5989C18.5538 24.4893 19.023 24.3848 19.698 24.2741C20.4295 24.1616 21.8235 23.9571 23.5248 23.7419V28.7642V29.0454H23.664C24.5025 28.7659 25.3416 28.4869 26.3199 28.2074V23.4307C27.9742 23.2611 29.8397 23.1142 31.9099 22.9995V26.9491C32.7484 26.8093 33.7267 26.6685 34.7049 26.5287V22.8603C36.1138 22.803 37.5128 22.7806 38.8975 22.7838V25.9692C39.3167 25.9692 39.7371 25.8299 40.0166 25.8299H41.6925V22.8111C43.1142 22.8438 44.3527 22.8818 44.4876 22.8875V25.6907C46.3043 25.6907 47.9813 25.6902 50.0776 25.8299V18.7031C50.0776 17.8646 50.6366 17.3056 51.4751 17.3056H62.6553C63.4938 17.3056 64.0528 17.8646 64.0528 18.7031V26.8098C65.8695 26.9496 67.8261 27.2291 69.6428 27.5086V13.951L64.8907 9.19894L57.0652 5.9863V5.98632ZM57.0652 11.7156C57.9037 11.7156 58.4627 12.2746 58.4627 13.1131C58.4627 13.9516 57.9037 14.5106 57.0652 14.5106C56.2267 14.5106 55.6677 13.9516 55.6677 13.1131C55.6677 12.2746 56.2267 11.7156 57.0652 11.7156ZM43.6496 28.7642C37.78 31.5592 32.0502 34.7757 26.8794 38.6887C19.3328 44.139 13.044 50.4262 5.91667 59.3703L5.35712 59.9299V69.0137H17.7956L17.9348 68.5933C18.7733 66.3573 24.7815 54.6198 32.1883 45.8155C38.6169 38.1292 44.9074 32.5396 49.9384 28.9061C47.5626 28.7663 45.6061 28.7642 43.6496 28.7642V28.7642ZM54.6905 29.1845C49.7992 31.9795 42.1129 38.2678 34.4265 47.4914C27.439 56.0163 21.987 66.3584 20.869 69.0137H36.1025L36.2417 68.5933C38.8969 60.6275 42.3913 53.0815 46.5838 46.0939C50.9161 39.1063 55.6682 33.2362 59.0223 29.4629C57.6247 29.3232 56.2278 29.3243 54.6905 29.1845ZM36.3809 29.3237C31.2101 30.0225 27.1573 31.1416 24.502 31.8404C20.1697 33.0981 16.8157 34.0753 12.6231 36.3113C10.3871 37.5691 8.1516 38.9661 6.19508 40.6431L5.35712 41.3418V55.5981C12.0652 47.4925 18.0734 41.7611 25.2007 36.4505C28.6945 33.7952 32.4678 31.5598 36.3809 29.3237V29.3237ZM62.516 29.6049C59.3018 33.2384 53.7101 39.5256 48.9585 47.4914C44.9057 54.1995 41.5522 61.4671 39.0367 69.0137H52.7334L52.8727 68.7353C54.2702 62.4465 56.0859 56.2958 58.0424 50.2865C60.2784 43.4386 63.0751 36.5908 66.0099 30.0225C64.8918 29.8827 63.7738 29.7446 62.5161 29.6049L62.516 29.6049ZM68.8049 30.4428C65.7303 37.1509 62.9348 44.1369 60.559 51.1244C58.6025 56.994 56.926 63.0044 55.5285 69.0137H69.6428V30.4428H68.8049V30.4428Z" fill="#FAF012"/>
</svg>
