<svg width="70" height="70" viewBox="0 0 70 70" fill="none" xmlns="http://www.w3.org/2000/svg">
<rect x="1" y="1" width="68" height="68" rx="9" stroke="#D3CB0C" stroke-width="2"/>
<g clip-path="url(#clip0_74_4)">
<path d="M6.02165 33.4021C6.1287 34.0035 6.27611 34.6001 6.34528 35.2055C6.49937 36.5545 6.77142 37.915 6.70807 39.2568C6.62714 40.9722 6.26337 42.6739 6.02165 44.3812C6.11154 44.3438 6.20132 44.3059 6.29154 44.2685C6.64603 44.8078 7.00041 45.3471 7.38436 45.9319C7.22929 46.4307 7.0467 47.0179 6.83358 47.7026C7.09602 47.4926 7.29414 47.3341 7.35274 47.2874C7.48925 48.0843 7.63719 48.9469 7.80758 49.9419C8.08492 49.7135 8.17124 49.6421 8.23373 49.5901C8.30635 49.9762 8.37951 50.3636 8.45257 50.7511C8.50059 50.7485 8.5485 50.7458 8.59652 50.7433C8.67185 50.4395 8.74717 50.1352 8.82238 49.8314C8.89414 49.834 8.9659 49.8368 9.03766 49.8394C10.1362 53.1621 11.4759 56.2639 11.7422 59.6144C11.7422 59.6144 11.5494 60.2181 11.9787 60.4914C12.408 60.7644 16.8182 60.8036 17.2083 60.4914C17.5984 60.1792 16.2798 58.6418 15.3001 58.22C14.9928 56.9463 14.6327 55.8355 14.431 54.5442C14.2263 53.2338 14.1346 51.8994 14.0893 50.5724C14.0436 49.2366 14.5278 48.058 15.2652 46.9296C15.8222 46.0772 16.2241 45.1077 16.5896 44.1501C16.9744 43.1418 17.1809 42.0653 17.5653 41.0571C17.8897 40.206 18.304 40.1911 19.019 40.777C19.7481 41.3749 20.4582 42.0877 21.3063 42.4249C22.3476 42.8393 23.5204 42.9308 24.6414 43.1346C25.297 43.254 25.9644 43.412 26.6222 43.3944C28.6295 43.3408 30.6336 43.1849 32.6408 43.1201C33.5434 43.091 34.1616 43.5727 34.3244 44.4617C34.5696 45.8001 34.6318 47.1747 34.921 48.5017C35.2098 49.826 35.1587 51.1984 35.8292 52.484C36.5513 53.8683 36.8323 55.4401 36.3431 57.011C36.2299 57.3746 35.9416 57.7417 35.6304 57.9575C35.6304 57.9575 35.2653 59.7877 35.6819 60.2042C36.0984 60.6202 38.2839 60.4643 39.4806 60.3604C39.4806 60.3604 42.4987 60.9848 43.6954 60.6207C44.8926 60.2565 44.2678 59.5279 44.1639 59.1119C44.0595 58.6959 43.2473 58.5946 43.2473 58.5946C43.0888 58.2864 42.5362 58.1494 42.4737 57.8228C42.1832 56.2985 42.276 54.7914 42.6714 53.2813C43.1628 51.4057 43.5185 49.4935 44.0394 47.6268C44.2199 46.9792 44.642 46.3535 45.0903 45.8362C45.9263 44.8716 47.3995 44.6522 48.03 43.4134C48.0392 43.3954 48.0745 43.3891 48.0987 43.3808C49.317 42.9507 49.8386 41.9692 50.1808 40.8156C50.3595 40.2129 50.6189 39.633 50.8592 39.0502C51.5698 37.3257 52.9295 36.1083 54.2379 34.8746C54.6333 34.5021 55.3197 34.1464 55.8081 34.2186C57.3112 34.4405 58.7825 34.8195 60.265 34.1627C60.3337 34.1324 60.4208 34.0799 60.4799 34.0989C61.5414 34.4414 62.4588 34.0782 63.3381 33.527C63.5934 33.3667 64.0544 33.1858 64.0509 33.0225C64.035 32.2939 64.0288 31.5057 63.7497 30.8554C63.3393 29.9009 62.6441 29.0727 62.1757 28.138C61.8539 27.496 61.845 26.7665 62.1109 26.0272C62.3355 26.1047 62.4808 26.1532 62.6243 26.2051C63.614 26.5613 64.3233 25.9915 64.2243 24.967C64.1978 24.6936 64.2898 24.3458 64.4541 24.1269C65.3478 22.9386 65.1625 22.1848 63.7611 21.6336C63.4864 21.5257 63.1557 21.5077 62.8563 21.5284C62.2954 21.5672 61.739 21.6645 61.2823 21.724C60.9811 21.3 60.8156 20.8307 60.4942 20.6669C59.9557 20.393 59.6228 20.1152 59.791 19.5662C58.8589 19.2201 57.9894 18.8969 57.0326 18.5416C57.2496 18.4276 57.361 18.3695 57.4725 18.3109C57.446 18.2387 57.4196 18.1665 57.3933 18.0942C56.5853 18.34 55.7774 18.5861 54.944 18.8397C54.9625 19.3363 54.9339 19.8431 54.1554 19.7912C54.0313 19.7827 53.8736 19.9219 53.7697 20.0297C53.3184 20.4973 52.8628 20.7429 52.2032 20.3581C52.0059 20.2432 51.6326 20.3317 51.3789 20.429C50.608 20.7249 49.9445 21.2022 48.998 21.0868C48.338 21.0067 47.627 21.3937 46.9321 21.5386C45.3327 21.8723 43.7621 21.9295 42.2942 21.0186C42.0824 20.887 41.806 20.8034 41.5572 20.7972C40.5159 20.7725 39.4725 20.8157 38.4316 20.7756C37.7316 20.7488 37.0355 20.6264 36.3382 20.5432C35.9886 20.5013 35.6417 20.434 35.2912 20.408C34.456 20.3464 33.5767 20.4433 32.797 20.2073C32.1512 20.0117 31.4775 20.065 31.002 20.2191C29.9212 20.5696 28.8913 20.4855 27.9061 20.1883C24.7559 19.2377 21.5193 18.7776 18.2746 18.3757C17.5895 18.2938 17.0489 18.0423 16.5082 17.7087C16.1035 17.4585 15.7337 17.1438 15.2798 17.4793C14.7563 17.3445 14.1584 17.1583 13.7128 17.3419C13.0916 17.5977 12.2683 17.2578 11.8166 17.9794C11.7981 18.0085 11.6712 17.9786 11.5973 17.9631C10.7418 17.7853 10.0536 18.2497 9.45485 18.6936C8.76497 19.2052 8.09171 19.4737 7.28303 19.2871C6.92465 19.7331 6.99771 20.4873 6.21891 20.5194C6.15373 20.522 6.06482 20.667 6.03795 20.7603C5.83766 21.4495 5.70903 22.1654 5.44573 22.8284C4.93239 24.1224 5.1644 25.4798 5.02045 26.8032C4.97729 27.1986 5.00545 27.6133 5.07149 28.0074C5.37494 29.8077 5.70159 31.6045 6.02165 33.4021ZM39.2781 53.3969C39.3473 53.3934 39.4168 53.3903 39.4859 53.3868C39.5969 54.1881 39.7694 54.9872 39.8021 55.7916C39.8351 56.6131 39.9928 57.4778 39.5119 58.3702C38.9514 56.6317 38.7013 55.0238 39.2781 53.3969Z" fill="#D3CB0C"/>
</g>
<defs>
<clipPath id="clip0_74_4">
<rect width="60" height="60" fill="white" transform="translate(5 9)"/>
</clipPath>
</defs>
</svg>
