<svg width="70" height="70" viewBox="0 0 70 70" fill="none" xmlns="http://www.w3.org/2000/svg">
<g clip-path="url(#clip0_74_3)">
<path d="M63.6227 19.5943C63.5049 18.7188 63.5802 17.8574 63.6143 16.9355C63.2648 16.7198 63.3901 16.2387 63.2117 15.8201C63.0343 16.381 63.2955 16.8886 63.288 17.4304C62.9267 17.3528 62.947 16.9673 62.6805 16.8324C62.587 17.0681 62.5797 17.2499 62.6933 17.5047C62.8665 17.8902 62.9269 18.3281 63.01 18.7485C63.1343 19.3805 63.2414 20.0147 63.3437 20.6511C63.3679 20.7977 63.3478 20.9517 63.3437 21.1038C63.3244 21.8887 63.5963 22.6206 63.7484 23.3758C63.9938 24.5899 64.2496 25.8115 63.9969 27.0608C63.8505 27.7842 63.5551 28.4281 62.9474 28.8964C62.768 29.0345 62.6192 29.2129 62.4515 29.3648C62.0561 29.7227 61.6419 29.9629 61.0788 29.7091C60.8918 29.6252 60.6594 29.6156 60.4479 29.6177C59.7743 29.6242 59.3729 29.3309 59.122 28.7201C58.9428 28.2783 58.7769 27.8532 58.8704 27.3658C58.8831 27.2968 58.8501 27.215 58.8235 27.146C58.4614 26.19 58.1129 25.2296 57.5328 24.3702C57.3163 24.0496 57.1856 23.6682 57.0251 23.3103C56.7766 22.7505 56.4695 22.2384 55.998 21.8263C55.556 21.4387 55.1671 21.0032 55.11 20.371C55.1035 20.302 55.0642 20.234 55.0111 20.0852C54.8126 20.3541 54.6159 20.5536 54.4982 20.7927C53.9074 21.9962 53.3263 23.2061 52.7667 24.4246C52.4395 25.1373 52.1377 25.8638 51.8618 26.5968C51.7532 26.8847 51.6992 27.2108 51.7034 27.5189C51.7224 28.936 51.7777 30.352 51.9975 31.7594C52.1124 32.4882 51.9233 33.2191 51.5068 33.8266C50.7345 34.9505 50.1077 36.1826 49.1017 37.1365C48.9191 37.3108 48.9022 37.4861 48.9934 37.7164C49.4406 38.8466 49.8525 39.9907 50.3232 41.1105C50.593 41.75 50.9466 42.353 51.2739 42.9683C51.684 43.7374 52.1122 44.4978 52.5178 45.2691C52.5912 45.4093 52.6356 45.5835 52.6347 45.7408C52.6303 46.3728 52.6081 47.006 52.5826 47.638C52.5678 48.0162 52.4362 48.3484 52.1875 48.6418C51.6936 49.2272 51.3281 49.8922 51.0051 50.5825C50.6037 51.4416 50.1427 52.2767 49.79 53.1563C49.157 54.7359 49.4979 54.2694 48.269 55.3988C47.7037 55.918 47.331 56.5514 46.9996 57.2259C46.8892 57.4478 46.7425 57.6635 46.5704 57.8417C46.2283 58.1965 45.8608 58.5268 45.4974 58.8625C44.9184 59.396 44.8889 59.9378 45.3477 60.5729C45.6196 60.949 45.8171 61.3782 46.0392 61.7669C45.9851 61.9909 45.8257 62.0451 45.6644 62.0761C45.4922 62.1079 45.3125 62.1303 45.1364 62.1259C44.2505 62.1006 43.3667 62.0688 42.481 62.0315C42.2015 62.0186 41.562 61.4855 41.5013 61.2146C41.3685 60.6252 41.1202 60.0909 40.7803 59.5947C40.6654 59.428 40.5573 59.2548 40.4562 59.0784C40.183 58.595 40.1025 58.1086 40.3023 57.5541C40.45 57.1441 40.4901 56.6906 40.5456 56.2517C40.6518 55.4114 40.7568 54.5681 40.8175 53.7224C40.8832 52.8281 40.93 51.9284 40.9204 51.0308C40.916 50.5825 40.8089 50.1225 40.673 49.6913C40.519 49.2037 40.4935 48.7119 40.574 48.2287C40.7269 47.3077 40.6748 46.3826 40.6441 45.4637C40.6027 44.3004 40.4847 43.1415 40.3998 41.9794C40.3435 41.2103 40.2958 40.4392 40.2234 39.6713C40.1883 39.2826 40.1596 39.2931 39.7665 39.3261C39.2258 39.3717 38.6819 39.4089 38.1393 39.4227C36.4555 39.4631 34.7718 39.5014 33.0878 39.5163C31.8174 39.5269 30.5612 39.3822 29.3254 39.0807C28.9319 38.9851 28.5413 38.8776 28.1495 38.778C26.9816 38.4795 25.9415 37.9059 24.9289 37.2729C24.6931 37.1252 24.4544 36.9817 24.2155 36.8384C24.0775 36.7546 23.9446 36.7418 23.871 36.9148C23.3782 38.0664 22.7832 39.1795 22.4981 40.4086C22.2979 41.2711 22.173 42.1506 22.0032 43.0195C21.9597 43.2404 21.8911 43.4603 21.8076 43.6686C21.5356 44.3495 21.2223 45.0154 20.9828 45.7059C20.8568 46.0693 20.8185 46.4717 20.7947 46.8596C20.7426 47.6934 20.5186 48.4806 20.1952 49.2412C20.0278 49.6365 19.9418 50.0359 20.0333 50.4618C20.2998 51.7129 20.5512 52.9666 20.8353 54.2127C20.9786 54.8415 21.1363 55.4735 21.3658 56.0737C21.6988 56.9458 22.0446 57.821 22.6102 58.5795C22.7297 58.7408 22.8832 58.878 23.0213 59.0257C23.392 59.423 23.7716 59.8118 24.1308 60.2187C24.4141 60.5383 24.568 60.9249 24.655 61.3414C24.7237 61.6694 24.6933 61.7822 24.3682 61.8288C23.92 61.8939 23.462 61.9064 23.0085 61.9022C22.3766 61.897 21.7446 61.8439 21.1114 61.8343C20.8978 61.8311 20.7401 61.7642 20.623 61.5996C20.2845 61.1291 19.9075 60.6777 19.6325 60.171C19.444 59.8246 19.3971 59.4018 19.2963 59.0109C19.1555 58.4735 19.3528 57.9538 19.2135 57.4154C19.1375 57.1213 19.1317 56.8663 19.0547 56.5719C18.9777 56.2789 18.9528 55.9686 18.847 55.6862C18.489 54.7248 18.2085 53.6912 18.029 52.6969C17.8983 51.9759 17.7675 51.4596 17.6109 50.7425C17.5318 50.3802 17.3824 49.9087 17.227 49.4094C17.2142 49.3669 17.1873 49.2968 17.1674 49.2374C16.98 48.686 16.7909 48.1356 16.6082 47.5834C16.4647 47.1489 16.4992 46.7198 16.6082 46.2757C16.8844 45.1457 17.1377 44.009 17.3816 42.8714C17.4665 42.4773 17.5038 42.0725 17.5473 41.6711C17.6339 40.8743 17.4948 40.1095 17.1956 39.3702C17.1573 39.2767 17.1467 39.1717 17.1063 39.0791C16.9756 38.7795 16.8657 38.4651 16.6942 38.19C16.4005 37.7183 16.256 37.729 15.947 38.1963C15.8359 38.3643 15.7489 38.5479 15.6412 38.7188C15.4665 38.995 15.2922 39.2723 15.1031 39.538C14.7785 39.9915 14.4536 40.4333 14.2783 40.9806C14.1609 41.3481 13.8942 41.6657 13.7541 42.029C13.4355 42.8545 13.1518 43.6937 12.8554 44.5263C12.6632 45.0681 12.5479 45.6118 12.6217 46.2004C12.6498 46.4289 12.5345 46.6924 12.4337 46.9175C12.2117 47.4135 11.9584 47.8959 11.7178 48.3825C11.7019 48.4163 11.694 48.4557 11.6733 48.4875C10.7694 49.912 10.7663 51.5447 10.6322 53.1379C10.5552 54.0569 10.5594 54.9853 10.7064 55.9053C10.7378 56.1027 10.715 56.31 10.7006 56.5117C10.6464 57.2468 10.7106 57.9448 11.1478 58.5831C11.3076 58.8155 11.3804 59.1119 11.4777 59.3851C11.6492 59.8748 11.8059 60.3697 11.9739 60.8615C12.0871 61.1931 12.0674 61.2749 11.7486 61.4341C11.0024 61.8092 10.2115 61.9376 9.38666 61.8079C9.1258 61.7677 8.86934 61.6943 8.61434 61.6242C8.40243 61.5648 8.31834 61.4213 8.34135 61.1929C8.40243 60.6034 8.44594 60.0106 8.50012 59.4198C8.50598 59.3583 8.51874 59.2903 8.54886 59.2382C8.71998 58.9397 8.68965 58.6264 8.61748 58.3151C8.47188 57.6863 8.30893 57.0629 8.17191 56.4318C8.13258 56.2531 8.12944 56.0536 8.16668 55.8741C8.36415 54.9087 8.60262 53.9514 8.78211 52.9837C8.90155 52.339 8.9595 51.6805 9.02016 51.0262C9.10091 50.1677 9.09861 49.3106 9.03439 48.4481C9.00259 48.0275 9.08229 47.5919 9.15697 47.1713C9.23353 46.742 9.276 46.3234 9.20864 45.8892C9.15613 45.5534 9.13522 45.2093 9.12685 44.8694C9.11827 44.5357 9.22558 44.232 9.37808 43.9282C9.736 43.2208 10.1253 42.5164 10.0983 41.6805C10.0893 41.4339 10.1015 41.1929 9.81424 41.0814C9.77177 41.0655 9.73203 41.0176 9.71006 40.9751C9.27621 40.1509 8.52418 39.5985 7.93134 38.909C7.35503 38.241 6.8808 37.5164 6.50322 36.723C6.43356 36.5786 6.38796 36.4487 6.21475 36.3628C6.06915 36.2916 5.97669 36.1077 5.86792 35.9686C5.3188 35.2645 5.04372 34.4443 5.00753 33.5732C4.9751 32.767 5.07279 31.9554 5.09894 31.146C5.12405 30.362 5.12279 29.5771 5.15103 28.792C5.15793 28.5965 5.21316 28.3948 5.28177 28.2099C5.38532 27.9338 5.46669 27.6756 5.40394 27.3654C5.34181 27.0648 5.43741 26.7855 5.62902 26.5146C5.81918 26.2437 5.92105 25.9082 6.05514 25.598C6.17521 25.3229 6.27186 25.0359 6.40365 24.7673C6.51472 24.5409 6.64839 24.3232 6.79713 24.1182C7.0038 23.8345 7.22157 23.5561 7.45837 23.2969C7.67404 23.0632 7.88699 22.8413 7.99263 22.5256C8.04054 22.3832 8.16793 22.2464 8.29365 22.1539C8.60911 21.9234 8.89862 21.6832 9.16743 21.387C9.38561 21.1437 9.80378 20.9843 10.1431 20.9653C10.9217 20.9218 11.7082 20.9854 12.4902 21.0067C13.1407 21.026 13.776 20.9611 14.3896 20.7199C15.4847 20.2898 16.5825 19.8627 17.6847 19.4464C18.2859 19.219 18.9202 19.1659 19.5553 19.1945C21.8647 19.3073 24.149 19.5217 26.3746 20.2164C28.4367 20.8603 30.5581 21.2414 32.7278 21.2297C33.3949 21.2266 34.0614 21.1065 34.7285 21.0364C34.7912 21.0301 34.8575 21.0226 34.9132 20.995C35.533 20.6858 36.1597 20.3875 36.7657 20.0507C36.9293 19.9604 37.0249 19.7522 37.1599 19.6058C37.3458 19.4008 37.5297 19.1924 37.7324 19.0067C37.9004 18.8538 38.1169 18.7527 38.2732 18.5904C39.0072 17.8243 39.959 17.6193 40.9468 17.63C41.9463 17.6407 42.846 17.3242 43.7191 16.928C44.1078 16.7527 44.4235 16.4 44.7433 16.0973C45.4242 15.4515 46.1572 14.8746 46.922 14.3297C47.9621 13.5893 48.9478 12.7704 49.9918 12.0353C50.8503 11.432 51.7819 10.954 52.7464 10.5216C53.5302 10.17 54.3333 10.134 55.1512 10.0915C55.9215 10.0511 56.6863 10.0597 57.4573 10.153C58.0161 10.22 58.594 10.1212 59.1622 10.1147C59.7304 10.1083 60.3062 10.0723 60.865 10.153C61.1953 10.2009 61.5162 10.4229 61.8072 10.6172C62.2937 10.9433 62.5998 10.9751 63.0991 10.6724C63.4995 10.4302 63.8988 10.1882 64.3057 9.95973C64.4099 9.90032 64.5469 9.86936 64.667 9.87585C64.9751 9.89279 65.0623 10.0746 64.9613 10.3666C64.8657 10.6396 64.7944 10.9212 64.735 11.2036C64.6596 11.5583 64.5565 11.8707 64.222 12.0905C63.7917 12.3708 63.7321 12.7024 63.9256 13.1793C64.0923 13.5883 64.2367 14.0058 64.3929 14.419C64.5553 14.8512 64.5088 15.29 64.4438 15.7318C64.3653 16.2577 64.3003 16.7845 64.225 17.3104C64.207 17.4346 64.2007 17.5727 64.1421 17.6769C63.8022 18.2739 63.6991 18.9324 63.6227 19.5943ZM43.8639 59.0611C43.8639 58.9113 43.8683 58.8274 43.8629 58.7444C43.847 58.4937 43.8214 58.2408 43.8129 57.9892C43.797 57.5867 43.7926 57.183 43.7821 56.7795C43.7779 56.6148 43.7472 56.4468 43.7704 56.2866C43.8152 55.9603 43.8756 55.644 44.2473 55.4953C44.5235 55.3858 44.6891 55.0863 45.0195 55.0438C45.4784 54.9844 45.7345 54.7018 45.9087 54.2694C46.0861 53.8287 46.3218 53.3996 46.5969 53.0118C46.9166 52.5614 47.3237 52.1746 47.6655 51.7391C48.5217 50.6461 49.2015 49.452 49.6785 48.1444C50.0088 47.234 49.7835 46.4142 49.2164 45.6938C48.8595 45.2403 48.4091 44.861 47.9981 44.4518C47.6303 44.0866 47.2182 43.7573 46.8944 43.358C46.2794 42.6026 45.7163 41.8058 45.1268 41.0306C45.009 40.8756 44.8741 40.7331 44.6839 40.512C44.6096 40.8316 44.5438 41.0475 44.512 41.2661C44.4323 41.8175 44.3885 42.374 44.2919 42.9222C44.0624 44.2309 43.8108 45.5363 43.7472 46.8663C43.7323 47.1932 43.6888 47.53 43.7438 47.8476C43.9457 49.0044 43.8511 50.107 43.3338 51.1778C43.1437 51.5709 43.0131 52.0075 42.9387 52.4386C42.8293 53.0727 42.7847 53.7197 42.7282 54.3623C42.6581 55.1591 42.6253 55.9588 42.846 56.7385C43.0119 57.3206 43.1966 57.8974 43.389 58.472C43.4646 58.6925 43.5727 58.9081 43.8639 59.0611ZM9.39377 34.5922C8.97477 35.2009 9.63162 38.0298 10.3684 38.4354C9.97803 37.1246 9.34231 35.9423 9.39377 34.5922Z" fill="#D3CB0C"/>
</g>
<rect x="1" y="1" width="68" height="68" rx="9" stroke="#D3CB0C" stroke-width="2"/>
<defs>
<clipPath id="clip0_74_3">
<rect width="60" height="60" fill="white" transform="translate(5 6)"/>
</clipPath>
</defs>
</svg>
