<svg width="70" height="70" viewBox="0 0 70 70" fill="none" xmlns="http://www.w3.org/2000/svg">
<rect x="1" y="1" width="68" height="68" rx="9" stroke="#D3CB0C" stroke-width="2"/>
<g clip-path="url(#clip0_74_2)">
<path d="M61.0039 22.5978L56.5703 16.7472C55.6719 15.5617 54.4414 14.8916 53.1719 14.8916H50.418C50.4375 14.2988 50.2617 13.6802 49.9102 13.2163C49.2266 12.3142 47.1562 11.0256 46.4922 11.9277C45.8086 12.8297 46.8047 15.5617 47.4687 16.438C47.5469 16.5411 47.6445 16.6441 47.7227 16.7215L43.8359 21.7988H21.9414C16.9805 21.7988 12.8594 26.7215 12.4297 33.1132C12.3906 33.706 12.7422 34.2215 13.1914 34.2215H13.9336V42.5978L12.3906 47.1854V57.8555L13.4648 60.3813H16.8047L14.9883 57.0565L15.7891 51.0514L19.9492 44.8143L21.7266 57.907L22.7812 60.3813H26.2578L24.4023 57.1081L23.9141 51.0256L27.1758 46.3349C30.4375 46.8503 34.1484 47.1854 38.1719 47.0823L39.5781 57.8039L40.7109 60.3555H43.9727L42.2344 57.0307V46.8246C42.8984 46.7472 43.582 46.6699 44.2461 46.5668L45.7109 57.8039L46.8437 60.3555H50.1055L48.3672 57.0307V44.8658C53.8945 38.3194 54.8516 27.2627 54.8516 27.2627H59.5C60.2617 27.2627 60.9648 26.7215 61.3359 25.8194C61.8047 24.7627 61.6484 23.4483 61.0039 22.5978Z" fill="#D3CB0C"/>
</g>
<defs>
<clipPath id="clip0_74_2">
<rect width="50" height="50" fill="white" transform="translate(12 11)"/>
</clipPath>
</defs>
</svg>
